<?xml version="1.0" standalone="no"?>
<!DOCTYPE svg PUBLIC "-//W3C//DTD SVG 20010904//EN"
 "http://www.w3.org/TR/2001/REC-SVG-20010904/DTD/svg10.dtd">
<svg version="1.0" xmlns="http://www.w3.org/2000/svg"
 width="1280.000000pt" height="1210.000000pt" viewBox="0 0 1280.000000 1210.000000"
 preserveAspectRatio="xMidYMid meet">
<metadata>
Created by potrace 1.15, written by Peter Selinger 2001-2017
</metadata>
<g transform="translate(0.000000,1210.000000) scale(0.100000,-0.100000)"
fill="#000000" stroke="none">
<path d="M5845 12089 c-1899 -114 -3628 -1021 -4713 -2474 -1023 -1369 -1374
-3118 -961 -4780 435 -1751 1662 -3259 3339 -4104 1986 -1002 4333 -970 6235
84 759 421 1416 991 1923 1670 1023 1369 1374 3118 961 4780 -517 2079 -2148
3795 -4264 4488 -826 271 -1687 385 -2520 336z m1535 -1074 c331 -37 624 -124
930 -276 533 -264 881 -636 991 -1057 43 -163 36 -386 -18 -557 -22 -70 -1361
-3242 -1496 -3545 -64 -143 -129 -242 -229 -346 -91 -95 -202 -177 -322 -238
-88 -45 -210 -90 -277 -101 l-36 -7 13 74 c7 40 13 102 12 138 l-1 65 -8 -77
c-44 -414 -380 -719 -829 -751 -33 -2 -35 -4 -47 -57 -20 -87 -115 -495 -203
-875 -45 -192 -103 -444 -130 -560 -27 -115 -108 -464 -180 -775 -167 -721
-158 -687 -187 -743 -30 -60 -95 -126 -148 -152 -74 -35 -139 -31 -379 25
-121 28 -234 59 -252 70 -116 72 -169 210 -140 361 8 41 76 337 151 659 75
322 172 738 215 925 74 316 201 864 335 1444 l57 244 -21 71 c-70 235 -32 489
102 686 177 260 516 410 839 371 181 -22 347 -89 479 -192 l64 -50 -55 52
c-125 119 -303 209 -505 256 -119 27 -350 25 -468 -5 -309 -77 -540 -255 -674
-519 l-47 -93 -25 17 c-58 37 -167 131 -220 191 -206 234 -311 502 -311 797 0
199 22 279 175 640 106 251 199 470 307 725 113 265 192 451 282 665 46 110
88 201 93 202 4 2 509 -168 1121 -377 781 -266 1121 -378 1138 -374 53 13 102
109 86 168 -5 17 -19 38 -33 47 -22 16 -487 177 -1784 617 -236 80 -432 147
-434 148 -2 2 9 33 25 69 23 57 31 66 48 61 12 -3 518 -175 1125 -382 l1104
-377 33 18 c37 20 74 84 74 129 0 15 -6 39 -14 55 -14 25 -93 54 -1123 405
-609 208 -1111 381 -1114 384 -6 6 62 176 75 189 2 2 500 -166 1107 -373 607
-207 1117 -377 1133 -377 75 -1 132 141 84 205 -8 11 -429 159 -1118 394 -608
207 -1106 378 -1108 380 -3 2 66 171 74 182 1 2 504 -168 1118 -377 614 -210
1128 -381 1142 -381 33 0 90 57 99 101 9 41 -1 93 -23 111 -9 8 -516 185
-1127 393 -610 208 -1111 379 -1112 380 -7 4 129 299 161 350 128 201 295 339
522 430 249 101 561 136 884 100z"/>
</g>
</svg>
